<svg width="52" height="52" viewBox="0 0 52 52" fill="none" xmlns="http://www.w3.org/2000/svg">
<rect width="52" height="52" rx="26" fill="#1ECB4F"/>
<path d="M31.1499 24C31.7022 24 32.1499 23.5523 32.1499 23C32.1499 22.4477 31.7022 22 31.1499 22C30.5976 22 30.1499 22.4477 30.1499 23C30.1499 23.5523 30.5976 24 31.1499 24Z" fill="white"/>
<path d="M31.1499 30C31.7022 30 32.1499 29.5523 32.1499 29C32.1499 28.4477 31.7022 28 31.1499 28C30.5976 28 30.1499 28.4477 30.1499 29C30.1499 29.5523 30.5976 30 31.1499 30Z" fill="white"/>
<path d="M33.75 27C34.3023 27 34.75 26.5523 34.75 26C34.75 25.4477 34.3023 25 33.75 25C33.1977 25 32.75 25.4477 32.75 26C32.75 26.5523 33.1977 27 33.75 27Z" fill="white"/>
<path d="M20.7998 24C21.3521 24 21.7998 23.5523 21.7998 23C21.7998 22.4477 21.3521 22 20.7998 22C20.2475 22 19.7998 22.4477 19.7998 23C19.7998 23.5523 20.2475 24 20.7998 24Z" fill="white"/>
<path d="M20.7998 30C21.3521 30 21.7998 29.5523 21.7998 29C21.7998 28.4477 21.3521 28 20.7998 28C20.2475 28 19.7998 28.4477 19.7998 29C19.7998 29.5523 20.2475 30 20.7998 30Z" fill="white"/>
<path d="M18.2 27C18.7522 27 19.2 26.5523 19.2 26C19.2 25.4477 18.7522 25 18.2 25C17.6477 25 17.2 25.4477 17.2 26C17.2 26.5523 17.6477 27 18.2 27Z" fill="white"/>
<path d="M29.8999 20.2C30.4522 20.2 30.8999 19.7522 30.8999 19.2C30.8999 18.6477 30.4522 18.2 29.8999 18.2C29.3476 18.2 28.8999 18.6477 28.8999 19.2C28.8999 19.7522 29.3476 20.2 29.8999 20.2Z" fill="white"/>
<path d="M22.0999 20.2C22.6521 20.2 23.0999 19.7522 23.0999 19.2C23.0999 18.6477 22.6521 18.2 22.0999 18.2C21.5476 18.2 21.0999 18.6477 21.0999 19.2C21.0999 19.7522 21.5476 20.2 22.0999 20.2Z" fill="white"/>
<path d="M26.0498 21C26.6021 21 27.0498 20.5523 27.0498 20C27.0498 19.4477 26.6021 19 26.0498 19C25.4975 19 25.0498 19.4477 25.0498 20C25.0498 20.5523 25.4975 21 26.0498 21Z" fill="white"/>
<path d="M29.8999 34C30.4522 34 30.8999 33.5523 30.8999 33C30.8999 32.4477 30.4522 32 29.8999 32C29.3476 32 28.8999 32.4477 28.8999 33C28.8999 33.5523 29.3476 34 29.8999 34Z" fill="white"/>
<path d="M22.0999 34C22.6521 34 23.0999 33.5523 23.0999 33C23.0999 32.4477 22.6521 32 22.0999 32C21.5476 32 21.0999 32.4477 21.0999 33C21.0999 33.5523 21.5476 34 22.0999 34Z" fill="white"/>
<path d="M26.0498 33.2C26.6021 33.2 27.0498 32.7522 27.0498 32.2C27.0498 31.6477 26.6021 31.2 26.0498 31.2C25.4975 31.2 25.0498 31.6477 25.0498 32.2C25.0498 32.7522 25.4975 33.2 26.0498 33.2Z" fill="white"/>
<path d="M27.75 24.25C28.4404 24.25 29 23.6904 29 23C29 22.3096 28.4404 21.75 27.75 21.75C27.0596 21.75 26.5 22.3096 26.5 23C26.5 23.6904 27.0596 24.25 27.75 24.25Z" fill="white"/>
<path d="M24.25 24.25C24.9404 24.25 25.5 23.6904 25.5 23C25.5 22.3096 24.9404 21.75 24.25 21.75C23.5596 21.75 23 22.3096 23 23C23 23.6904 23.5596 24.25 24.25 24.25Z" fill="white"/>
<path d="M29.5 27.25C30.1904 27.25 30.75 26.6904 30.75 26C30.75 25.3096 30.1904 24.75 29.5 24.75C28.8096 24.75 28.25 25.3096 28.25 26C28.25 26.6904 28.8096 27.25 29.5 27.25Z" fill="white"/>
<path d="M22.5 27.25C23.1904 27.25 23.75 26.6904 23.75 26C23.75 25.3096 23.1904 24.75 22.5 24.75C21.8096 24.75 21.25 25.3096 21.25 26C21.25 26.6904 21.8096 27.25 22.5 27.25Z" fill="white"/>
<path d="M24.25 30.25C24.9404 30.25 25.5 29.6904 25.5 29C25.5 28.3096 24.9404 27.75 24.25 27.75C23.5596 27.75 23 28.3096 23 29C23 29.6904 23.5596 30.25 24.25 30.25Z" fill="white"/>
<path d="M27.75 30.25C28.4404 30.25 29 29.6904 29 29C29 28.3096 28.4404 27.75 27.75 27.75C27.0596 27.75 26.5 28.3096 26.5 29C26.5 29.6904 27.0596 30.25 27.75 30.25Z" fill="white"/>
<path d="M26.0001 17.3299C25.5101 17.3299 25.1201 16.9399 25.1201 16.4499C25.1201 15.9599 25.5101 15.5699 26.0001 15.5699C26.4901 15.5699 26.8801 15.9599 26.8801 16.4499C26.8801 16.9399 26.4901 17.3299 26.0001 17.3299Z" fill="white"/>
<path d="M31.25 17.6C30.83 17.6 30.49 17.26 30.49 16.85C30.49 16.44 30.83 16.1 31.24 16.1C31.65 16.1 32 16.44 32 16.85C32 17.26 31.67 17.6 31.25 17.6Z" fill="white"/>
<path d="M20.75 17.6C20.34 17.6 20 17.26 20 16.85C20 16.44 20.33 16.1 20.75 16.1H20.76C21.17 16.1 21.51 16.44 21.51 16.85C21.51 17.26 21.17 17.6 20.75 17.6Z" fill="white"/>
<path d="M26.0001 36.38C25.5101 36.38 25.1201 35.99 25.1201 35.5C25.1201 35.01 25.5101 34.62 26.0001 34.62C26.4901 34.62 26.8801 35.01 26.8801 35.5C26.8801 35.99 26.4901 36.38 26.0001 36.38Z" fill="white"/>
<path d="M31.25 35.85C30.83 35.85 30.49 35.51 30.49 35.1C30.49 34.69 30.83 34.35 31.24 34.35C31.65 34.35 32 34.69 32 35.1C32 35.51 31.67 35.85 31.25 35.85Z" fill="white"/>
<path d="M20.75 35.85C20.34 35.85 20 35.51 20 35.1C20 34.69 20.33 34.35 20.75 34.35H20.76C21.17 34.35 21.51 34.69 21.51 35.1C21.51 35.51 21.17 35.85 20.75 35.85Z" fill="white"/>
<path d="M15.5499 26.88C15.0699 26.88 14.6699 26.49 14.6699 26.01V26C14.6699 25.52 15.0599 25.12 15.5499 25.12C16.0399 25.12 16.4299 25.51 16.4299 26C16.4299 26.49 16.0299 26.88 15.5499 26.88Z" fill="white"/>
<path d="M17.75 31.75C17.34 31.75 17 31.42 17 31V30.99C17 30.58 17.34 30.24 17.75 30.24C18.16 30.24 18.5 30.58 18.5 30.99C18.5 31.4 18.16 31.75 17.75 31.75Z" fill="white"/>
<path d="M17.75 21.76C17.34 21.76 17 21.42 17 21.01C17 20.6 17.34 20.26 17.75 20.26C18.16 20.26 18.5 20.59 18.5 21V21.01C18.5 21.42 18.16 21.76 17.75 21.76Z" fill="white"/>
<path d="M36.5001 26.88C36.0201 26.88 35.6201 26.49 35.6201 26.01V26C35.6201 25.52 36.0101 25.12 36.5001 25.12C36.9901 25.12 37.3801 25.51 37.3801 26C37.3801 26.49 36.9801 26.88 36.5001 26.88Z" fill="white"/>
<path d="M34.3 31.75C33.89 31.75 33.55 31.42 33.55 31V30.99C33.55 30.58 33.89 30.24 34.3 30.24C34.71 30.24 35.05 30.58 35.05 30.99C35.05 31.4 34.71 31.75 34.3 31.75Z" fill="white"/>
<path d="M34.3 21.76C33.89 21.76 33.55 21.42 33.55 21.01C33.55 20.6 33.89 20.26 34.3 20.26C34.71 20.26 35.05 20.59 35.05 21.01V21.02C35.05 21.42 34.71 21.76 34.3 21.76Z" fill="white"/>
</svg>
