<svg width="52" height="52" viewBox="0 0 52 52" fill="none" xmlns="http://www.w3.org/2000/svg">
<rect width="52" height="52" rx="26" fill="#3855EC"/>
<path d="M26 16C20.48 16 16 20.48 16 26C16 31.52 20.48 36 26 36C31.52 36 36 31.52 36 26C36 20.48 31.52 16 26 16ZM29.82 30.32C29.73 30.8 29.32 31.14 28.84 31.14H23.3C22.64 31.14 22.16 30.5 22.34 29.87L23.18 26.92L21.47 27.26C21.42 27.27 21.37 27.27 21.32 27.27C20.97 27.27 20.66 27.02 20.59 26.67C20.51 26.26 20.77 25.87 21.18 25.79L23.65 25.3L24.96 20.73C25.02 20.52 25.22 20.37 25.44 20.37H26.8C27.46 20.37 27.94 20.99 27.77 21.63L26.96 24.64L28.89 24.25C29.29 24.17 29.69 24.43 29.77 24.84C29.85 25.25 29.59 25.64 29.18 25.72L26.52 26.25L25.97 28.3H29C29.62 28.3 30.09 28.86 29.98 29.48L29.82 30.32Z" fill="white"/>
</svg>
