<svg width="52" height="52" viewBox="0 0 52 52" fill="none" xmlns="http://www.w3.org/2000/svg">
<rect width="52" height="52" rx="26" fill="#6154F0"/>
<path d="M22.7701 28.43L24.3801 29.15C25.4101 29.61 26.5901 29.61 27.6301 29.15L29.2401 28.43C30.6801 27.79 32.0101 29.53 31.0101 30.75L27.5501 34.98C26.7001 36.02 25.3101 36.02 24.4501 34.98L21.0001 30.75C19.9901 29.53 21.3201 27.79 22.7701 28.43Z" fill="white"/>
<path d="M22.57 25.67C22.27 25.89 22.31 26.35 22.65 26.52L25 27.69C25.55 27.97 26.44 27.97 26.98 27.69L29.33 26.52C29.66 26.35 29.7 25.9 29.41 25.67L26.3 23.33C26.12 23.2 25.88 23.2 25.7 23.33L22.57 25.67Z" fill="white"/>
<path d="M31.8801 22.24L27.7101 17.04C27.6301 16.94 27.5401 16.85 27.4501 16.76C27.1901 16.51 26.8201 16.74 26.8201 17.1V21.4C26.8201 21.56 26.8901 21.71 27.0201 21.8L31.1701 24.92L31.3501 25.05C31.5301 25.18 31.7801 25.18 31.9301 25.02C32.6301 24.26 32.6201 23.16 31.8801 22.24Z" fill="white"/>
<path d="M20.1101 22.33L24.2601 17.05C24.3401 16.95 24.4201 16.86 24.5101 16.77C24.7701 16.52 25.1401 16.74 25.1401 17.11V21.48C25.1401 21.64 25.0701 21.78 24.9401 21.88L20.8101 25.05L20.6401 25.18C20.4601 25.31 20.2101 25.31 20.0501 25.14C19.3701 24.37 19.3801 23.27 20.1101 22.33Z" fill="white"/>
</svg>
