<svg width="52" height="52" viewBox="0 0 52 52" fill="none" xmlns="http://www.w3.org/2000/svg">
<rect width="52" height="52" rx="26" fill="#FABC1E"/>
<path d="M28.97 26.75H28.2H23.53V29.58H24.84H28.97C29.92 29.58 30.7 28.94 30.7 28.16C30.7 27.38 29.92 26.75 28.97 26.75Z" fill="white"/>
<path d="M26 16C20.48 16 16 20.48 16 26C16 31.52 20.48 36 26 36C31.52 36 36 31.52 36 26C36 20.48 31.52 16 26 16ZM28.97 31.08H27.32V32.5C27.32 32.91 26.98 33.25 26.57 33.25C26.16 33.25 25.82 32.91 25.82 32.5V31.08H24.84H24.61V32.5C24.61 32.91 24.27 33.25 23.86 33.25C23.45 33.25 23.11 32.91 23.11 32.5V31.08H22.78H21.05C20.64 31.08 20.3 30.74 20.3 30.33C20.3 29.92 20.64 29.58 21.05 29.58H22.03V26V22.42H21.05C20.64 22.42 20.3 22.08 20.3 21.67C20.3 21.26 20.64 20.92 21.05 20.92H22.78H23.11V19.5C23.11 19.09 23.45 18.75 23.86 18.75C24.27 18.75 24.61 19.09 24.61 19.5V20.92H24.84H25.82V19.5C25.82 19.09 26.16 18.75 26.57 18.75C26.98 18.75 27.32 19.09 27.32 19.5V20.92H28.2C29.75 20.92 31.12 22.28 31.12 23.84C31.12 24.51 30.88 25.12 30.5 25.62C31.51 26.11 32.2 27.07 32.2 28.18C32.2 29.77 30.75 31.08 28.97 31.08Z" fill="white"/>
<path d="M29.62 23.83C29.62 23.17 29 22.41 28.2 22.41H24.84H23.53V25.24H28.2C28.98 25.25 29.62 24.61 29.62 23.83Z" fill="white"/>
</svg>
